<svg width="1627" height="2858" viewBox="0 0 1627 2858" fill="none" xmlns="http://www.w3.org/2000/svg">
<path d="M811.582 975.877C809.226 978.099 807.139 980.455 804.709 982.723L803.901 983.397C795.608 990.734 786.931 998.139 777.782 1005.4C770.546 1011.39 763.168 1018 755.561 1024.99C754.753 1025.66 754.753 1025.66 754.282 1026.13C745.275 1033.73 736.14 1041.01 726.924 1048.05C723.356 1050.81 720.193 1053.1 716.766 1055.71C729.859 1303.4 764.036 1666.72 767.018 1846.44C768.095 1857.32 768.567 1868.27 769.576 1879.15C770.586 1888.79 770.721 1898.43 771.663 1908.07C771.663 1910.62 772.538 1913.25 772.606 1915.81C769.173 1919.92 765.941 1924.01 762.905 1928.34C759.607 1932.99 756.241 1937.53 752.747 1942.03C749.449 1946.4 745.861 1950.62 742.414 1954.91C738.779 1959.42 735.238 1963.96 731.529 1968.35C727.894 1972.86 724.252 1977.29 720.408 1981.6C716.369 1985.91 712.323 1990.15 708.062 1994.22C703.013 1999.07 698.086 2003.91 692.956 2008.6C686.965 2013.72 680.906 2018.93 675.05 2024.2C668.789 2029.59 662.67 2035.12 656.409 2040.53C565.437 2124.01 472.654 2182.73 364.165 2207.51C98.747 2255.02 -41.5555 2083.8 92.8298 1786.28L92.1566 1782.04C-1.27968 1919.11 -27.4728 2104.12 31.174 2243.38C60.0867 2308.78 108.326 2359.14 177.764 2382.83C189.437 2523.62 239.669 2695.72 419.487 2786.07C640.711 2896.16 938.509 2875.1 1140.51 2750.65C1285.47 2670.06 1323.58 2535.44 1376.49 2394.56C1399.73 2334.3 1426.28 2282.92 1489.88 2277.24C1492.78 2277.91 1495.74 2277.91 1498.57 2278.18C1501.27 2278.86 1504.03 2278.86 1506.75 2279.06C1509.65 2279.73 1512.54 2280.13 1515.39 2280.67C1518.22 2281.35 1520.78 2281.88 1523.6 2282.63C1526.15 2283.37 1528.71 2284.17 1531.14 2285.12C1533.42 2286.06 1535.98 2287.14 1538.13 2288.35C1540.62 2289.69 1543.04 2291.11 1545.51 2292.25C1548.07 2293.46 1550.56 2294.81 1553.18 2296.09C1556 2297.3 1558.56 2298.65 1561.33 2300.2C1564.02 2301.74 1566.78 2303.16 1569.56 2304.57C1572.12 2305.98 1574.81 2307.26 1577.47 2308.54C1579.76 2309.82 1582.18 2311.24 1584.46 2312.58C1586.55 2313.73 1588.44 2315.07 1590.59 2316.08C1591.8 2316.76 1593.08 2317.36 1594.36 2318.1C1595.37 2318.77 1596.38 2319.45 1597.46 2320.12C1599.95 2321.47 1602.17 2323.02 1604.54 2324.43C1604.54 2324.43 1605.35 2324.43 1605.35 2325.1C1606.15 2325.1 1606.15 2325.78 1606.36 2325.78C1607.7 2326.52 1610.13 2327.86 1610.06 2326.99C1610.06 2272.61 1628.1 2214.6 1626.61 2160.09C1589.55 2136.49 1535.28 2099.07 1491.92 2077.24C1416.62 2030.43 1403.84 1969.35 1402.21 1940.16C1402.21 1942.38 1401.2 1944.4 1400.59 1946.49C1399.85 1949.45 1399.52 1952.48 1398.91 1955.46C1398.17 1958.49 1398.04 1961.59 1398.1 1964.73C1393.32 2023.93 1392.72 2084.47 1400.26 2144.89C1397.63 2148.86 1394.4 2153.56 1390.87 2158.71C1389.12 2160.87 1387.23 2163.02 1385.62 2165.38C1382.99 2170.09 1380.9 2175.08 1378.11 2179.76C1374.68 2185.01 1372.32 2190.73 1370.14 2196.57C1367.99 2202.57 1365.7 2208.56 1363.95 2214.72C1362.4 2221.25 1360.72 2227.7 1358.63 2234.03C1356.34 2240.49 1355.13 2247.28 1353.24 2253.91C1351.16 2260.24 1349.27 2266.76 1347.99 2273.43C1346.71 2279.96 1344.76 2286.27 1343.08 2292.67C1302.8 2448.76 1184.88 2560.14 1041.63 2622.04C847.159 2705.69 608.762 2722.35 407.336 2628.64C312.365 2580.4 229.834 2489.62 194.95 2388.64C236.121 2399.54 283.977 2401.76 339.265 2392.75C515.003 2363.23 654.343 2234.08 772.659 2100.51C775.217 2304.44 714.666 2486.03 589.281 2645.32C764.534 2494.07 858.22 2310.8 875.056 2092.84C876.133 2082.83 877.008 2072.84 877.546 2062.81C878.22 2052.75 878.893 2042.71 879.633 2032.64C880.307 2022.73 880.306 2012.81 880.643 2002.88C881.316 1993.77 881.316 1984.69 882.259 1975.62C882.999 1969.63 882.932 1963.65 882.932 1957.68C936.321 1869.81 967.247 1813.94 1023.02 1730.77C1038.45 1710.22 1061.13 1693.58 1078.72 1701.91C1088.86 1706.76 1088.94 1718.9 1091.48 1728.36C1102.95 1769.98 1115.97 1808.43 1143.83 1842.67C1147.54 1846.78 1151.22 1850.89 1155.35 1854.53C1159.52 1858.3 1163.79 1862.01 1168.58 1865.14C1173.49 1868.64 1178.64 1871.95 1183.84 1875.07C1189.22 1878.3 1194.6 1881.2 1200.22 1883.89C1205.61 1886.38 1211.15 1888.47 1216.83 1890.35C1222.55 1892.24 1228.36 1894.19 1234.24 1895.4C1239.63 1896.55 1244.93 1897.96 1250.3 1899.24C1255.82 1900.38 1261.4 1901.06 1266.99 1901.53C1272.91 1902.2 1278.88 1902.2 1284.9 1902.2C1290.75 1902.2 1296.76 1902.2 1302.55 1901.26C1308.14 1900.32 1313.63 1899.24 1319.07 1897.89C1324.45 1896.48 1329.87 1894.86 1335.08 1892.78C1340.13 1890.62 1345.15 1888.13 1350.19 1885.88C1355.24 1883.72 1360.57 1881.91 1365.43 1879.15C1369.94 1876.32 1374.5 1873.22 1378.92 1870.18C1383.57 1867.15 1388.21 1864.12 1392.58 1860.6C1397.22 1856.76 1402.43 1853.59 1406.77 1849.39C1411.49 1844.88 1416 1840.12 1420.33 1835.25C1424.77 1830.2 1429.55 1825.4 1433.25 1819.75C1436.62 1815.03 1439.71 1810.31 1442.4 1805.25C1445.02 1800.47 1447.11 1795.54 1449 1790.46C1451.01 1785.35 1452.7 1780.03 1454.31 1774.78C1455.79 1768.99 1457.41 1763.33 1458.76 1757.57C1459.97 1751.65 1461.11 1745.8 1461.58 1739.79C1470.33 1675.51 1461.58 1610.09 1459.83 1545.35C1459.83 1539.49 1459.83 1533.67 1458.49 1527.92C1457.54 1522.13 1456.74 1516.41 1455.53 1510.71C1454.31 1504.92 1453.03 1499.25 1451.15 1493.63C1449.33 1487.84 1447.25 1482.12 1444.62 1476.66C1441.79 1470.81 1438.56 1465.29 1434.83 1460.01C1388.2 1393.59 1313.71 1341.48 1232.12 1335.36C1245.88 1446.73 1284.09 1546.86 1292.38 1698.29L1297.56 1528.17C1300.52 1529.31 1303.62 1530.52 1306.56 1531.8C1310.67 1533.28 1314.71 1534.97 1318.84 1536.72C1320.93 1537.52 1323.09 1538.6 1325.17 1539.54V1540.22C1328.67 1542.1 1331.91 1544.26 1335.35 1546.21C1340.53 1549.24 1345.54 1552.54 1350.62 1555.75C1357.37 1560.06 1364.12 1564.25 1370.59 1568.95C1377.77 1573.8 1384.06 1579.58 1390.41 1585.39C1396.47 1590.58 1402.19 1596.1 1407.43 1602.09C1412.01 1607.54 1416.49 1613.19 1420.63 1619.05C1423.93 1624.03 1427.3 1628.96 1430.69 1633.94C1428.87 1637.24 1427.12 1640.61 1424.97 1643.83C1421.54 1649.48 1417.22 1654.58 1412.79 1659.51C1408.48 1664.29 1404.11 1668.96 1399.58 1673.47C1395.41 1677.64 1390.69 1680.98 1386.03 1684.47C1381.79 1687.84 1377.34 1691 1372.8 1693.99C1368.42 1697.02 1363.89 1699.91 1359.4 1702.8C1354.95 1705.7 1349.98 1707.65 1345.04 1709.61C1340 1711.77 1335.05 1714.39 1329.94 1716.55C1325.09 1718.64 1319.79 1720.18 1314.62 1721.6C1309.23 1723.01 1303.97 1724.09 1298.6 1725.03C1293.01 1726.17 1287.42 1726.04 1281.78 1726.17C1275.92 1726.17 1270.15 1726.17 1264.39 1725.5C1259.07 1724.83 1253.58 1724.22 1248.28 1723.08C1242.89 1721.66 1237.61 1720.39 1232.2 1719.24C1226.48 1718.03 1220.95 1716.21 1215.42 1714.39C1210.03 1712.44 1204.67 1710.29 1199.42 1707.86C1194.04 1705.31 1188.78 1702.41 1183.71 1699.17C1178.66 1696.07 1173.61 1692.77 1168.84 1689.16C1164.2 1686.13 1160.33 1682.07 1156.23 1678.37C1152.25 1674.74 1148.83 1670.54 1145.16 1666.58C1141.39 1662.61 1138.35 1658.08 1135.28 1653.6C1131.91 1649.16 1128.68 1644.65 1125.88 1639.83C1123.32 1634.98 1121.03 1629.95 1118.47 1625.17C1115.71 1620.19 1113.55 1614.93 1111.59 1609.57C1109.64 1604.26 1108.3 1598.84 1107.02 1593.37C1105.67 1587.92 1105 1582.25 1103.72 1576.77C1090.72 1508.15 1045.08 1518.16 1015.38 1556.04C962.905 1622.96 926.547 1700.95 881.283 1772.07C880.138 1773.62 879.196 1775.24 878.119 1776.85C878.119 1772.34 877.109 1767.86 877.109 1763.38C876.099 1752.52 866.957 1670.86 865.86 1660.02C864.85 1649.39 864.716 1638.73 864.177 1628.1C863.168 1616.71 861.754 1605.35 860.946 1593.95C859.936 1581.44 858.926 1568.89 858.523 1556.35C858.523 1544.69 859.196 1533.01 857.849 1521.36C857.849 1509.07 857.176 1496.78 855.965 1484.54C854.484 1470.03 853.205 1455.53 852.329 1440.98C850.916 1425.21 849.57 1409.39 847.887 1393.64C846.069 1378.43 844.184 1363.25 843.376 1347.98C842.03 1332.09 840.751 1316.19 839.27 1300.31C837.587 1280.29 835.904 1260.27 834.76 1240.21L811.582 975.877Z" fill="url(#paint0_linear_1_3)"/>
<path d="M1333.84 2322.88C1333.79 2322.88 1333.84 2323.55 1333.84 2323.55C1286.58 2463.07 1175.28 2563.62 1041.93 2621.24C847.462 2704.9 609.072 2721.56 407.646 2627.83C312.674 2579.6 230.137 2488.82 195.253 2387.84C302.274 2744.17 631.253 2786.5 794.067 2772.42C1083.37 2747.38 1276.36 2608.56 1334.02 2323.12L1333.84 2322.88Z" fill="url(#paint1_linear_1_3)"/>
<path d="M611.267 0.329878C612.142 5.17674 660.59 459.406 691.529 780.301C699.479 772.95 707.227 766.689 713.629 761.479C713.629 761.479 714.437 761.479 714.437 760.806C721.357 755.353 728.412 749.086 735.628 742.347C743.02 735.016 750.075 727.941 756.578 720.86C764.985 710.654 773.38 701.055 781.108 692.034C781.916 691.361 781.916 691.025 782.387 690.553C783.801 689.072 785.012 687.389 786.561 685.774L746.675 241.978C746.683 242.652 747.483 242.719 747.483 243.056C805.773 317.253 940.569 433.287 889.401 586.461C885.901 594.808 882.42 603.088 879.458 611.664C876.496 620.254 873.332 628.749 868.667 636.592C863.619 645.276 858.213 653.771 853.44 662.644C848.055 671.967 842.077 681.109 835.81 689.947C828.964 700.22 821.451 710.035 812.976 719.035C804.48 728.965 795.823 738.746 787.557 748.864C780.179 756.894 772.491 764.602 764.756 772.276C756.954 779.567 748.95 786.696 740.556 793.313C732.229 800.085 723.747 806.662 716.113 814.222C708.15 821.647 699.654 828.352 691.273 835.232C613.003 904.804 524.299 960.643 440.436 1021.53C324.919 1108.56 206.677 1244.92 143.082 1392.12C112.056 1466.2 94.6205 1547.26 90.1573 1627.32C89.2149 1722.98 89.1475 1835.49 143.277 1916.03C228.413 2040.36 412.512 2073.25 552.593 1947.68C627.396 1879.25 638.516 1777.9 630.418 1665.74C624.696 1582.12 626.581 1489.25 581.714 1426.73C523.653 1353.82 410.156 1337.28 365.66 1432.92C346.737 1475.75 351.038 1536.02 365.66 1612.56C368.016 1607.99 370.439 1603.29 372.189 1598.43C374.142 1593.04 376.632 1587.85 379.763 1583.01C382.792 1577.63 386.292 1572.52 390.338 1567.82C395.185 1562.97 400.819 1559.55 406.696 1556.47C413.428 1553.11 420.321 1550.48 427.309 1548.11C434.444 1545.49 441.681 1543.94 448.992 1542.53C456.141 1541.05 463.384 1540.17 470.574 1539.9C477.171 1539.23 483.364 1541.11 489.604 1542.53C496.726 1544.07 503.586 1546.63 510.244 1549.4C517.231 1552.43 523.936 1556 530.129 1560.34C536.053 1564.18 541.943 1568.15 547.241 1572.83C552.088 1577.41 556.847 1582.11 561.317 1587.06C566.231 1591.1 569.564 1596.58 572.902 1601.99C577.345 1607.58 581.176 1613.4 584.488 1619.77C587.719 1626.1 589.873 1633.01 591.839 1639.93C593.993 1647.39 595.407 1655.01 596.888 1662.67C598.503 1708.42 579.197 1742.84 550.344 1769.47C438.403 1862.92 295.737 1877.02 192.486 1809.96C22.4631 1645.75 198.679 1439.63 318.356 1316.37C368.918 1264.72 424.677 1219.37 482.489 1177.47C557.399 1123.11 629.361 1065.67 702.771 1010.63C711.556 1003.89 720.159 997.022 728.614 989.893C736.416 982.717 744.38 975.662 752.572 968.917C761.101 962.165 769.301 955.07 777.439 947.853C785.753 940.28 793.69 932.256 801.397 924.077C810.223 914.134 818.698 903.868 827.355 893.764C835.682 884.434 843.955 875.05 851.528 865.1C857.991 856.248 864.123 847.16 870.074 837.951C875.46 829.429 880.306 820.637 885.544 812.048C890.727 804.057 894.961 795.662 898.711 786.965C902.144 778.698 904.837 770.183 908.317 761.91C911.885 754.034 914.78 745.955 917.493 737.743C920.051 729.941 921.599 721.829 923.484 713.818C968.472 542.213 943.753 331.733 859.155 188.333C797.055 85.3785 707.025 5.90374 611.778 0L611.267 0.329878Z" fill="url(#paint2_linear_1_3)"/>
<path d="M1123.41 921.936C1110.01 923.417 1098.46 935.83 1089.41 959.149C1079.24 985.389 1073 1017.56 1063.27 1094.04C1056.26 1148.88 1055.41 1158.18 1054.6 1159.58L1053.8 1160.93V1159.58C1053.8 1157.69 1048.41 1133.45 1045.95 1124.38C1035.84 1085.38 1019.18 1045.83 1002.08 1020.28C987.523 998.536 972.349 983.141 955.54 972.976C945.066 966.648 931.697 961.815 920.791 960.394C915.002 959.654 913.595 959.721 910.182 963.895C906.951 967.463 888.587 1003.25 887.348 1008.25C886.54 1012.56 886.675 1019.88 888.425 1024.06C893.81 1039.09 907.839 1051.43 928.068 1058.9C936.927 1062.2 950.31 1065.16 952.935 1064.49C954.012 1064.49 955.695 1062.27 958.926 1057.49C961.417 1053.86 963.706 1050.75 963.706 1050.59C963.706 1049.92 965.321 1051.94 972.316 1061.9C998.852 1099.82 1021.75 1157.17 1037.71 1225.76C1040.13 1236.18 1040.53 1237.32 1042.22 1238.13C1044.64 1239.28 1046.12 1238.8 1049.76 1235.78C1060.26 1227.04 1060.88 1226.13 1061.67 1224.4C1061.67 1223.46 1063.09 1219.62 1064.1 1215.95C1070.88 1192.46 1075.3 1165.15 1081.51 1107.72C1088.77 1041.07 1092.99 1018.17 1101.03 1000.99C1104.06 994.524 1108.28 989.233 1112.07 987.247C1115.17 985.632 1120.65 985.16 1125.2 986.305C1132.89 988.122 1141.48 993.501 1154.72 1004.79C1159.16 1008.63 1163.29 1011.84 1164.12 1011.99C1164.92 1011.99 1166 1011.98 1167.15 1011.25C1168.63 1010.31 1169.7 1007.95 1176.11 991.401C1180.08 981.074 1183.4 972.289 1183.38 971.791C1183.38 969.502 1168.65 950.081 1160.25 941.236C1149.21 929.637 1138.83 923.262 1129.29 922.091C1127.27 922.091 1125.32 922.091 1123.5 922.091L1123.41 921.936Z" fill="url(#paint3_linear_1_3)"/>
<path d="M1240.08 1097.22C1220.47 1097.9 1198.49 1100.19 1193.82 1102C1192.94 1102.68 1185.71 1114.21 1170.55 1140.49C1158.51 1161.37 1148.86 1179.19 1148.06 1180.16C1148.06 1181.65 1148.06 1182.18 1148.94 1183.46C1149.81 1184.74 1150.55 1184.94 1153.31 1184.94C1155.13 1184.94 1159.98 1184.27 1164.2 1183.46C1182.1 1180.03 1195.2 1178.68 1217.65 1177.94C1246.56 1177 1272.67 1178.82 1294.98 1183.4C1298.21 1184.07 1301.24 1184.81 1301.24 1185.01C1302.05 1185.68 1290.15 1193.55 1281.51 1198.66C1259.02 1211.95 1209.16 1234.56 1167.99 1250.13C1138.5 1261.29 1137.84 1261.57 1136.89 1264.24C1136.08 1266.05 1137.77 1268.68 1139.25 1269.29C1141.27 1270.03 1142.95 1269.96 1167 1265.92C1178.18 1264.17 1194.47 1261.88 1203.15 1260.87C1233.37 1257.37 1257.61 1253.74 1267.75 1251.08C1279.08 1248.11 1292.32 1238.25 1306.91 1221.93C1321.94 1205.11 1325.39 1199.79 1347.16 1159.45C1356.34 1142.43 1364.61 1127.16 1365.58 1125.56C1368.75 1120.04 1367.74 1117.9 1359.25 1113.67C1336.45 1102.2 1288.04 1095.51 1239.96 1097.16L1240.08 1097.22Z" fill="url(#paint4_linear_1_3)"/>
<path d="M368.177 1618.42L286.643 1702.49L370.917 1784.24L452.418 1700.24L368.177 1618.42Z" fill="url(#paint5_linear_1_3)"/>
<path d="M1196.03 2247.4C1186.98 2247.4 1184.13 2247.4 1176.09 2249.96C1157 2255.75 1142.53 2266.15 1129.79 2283.27L1127.17 2286.84L1123.8 2284.15C1119.42 2280.65 1118.35 2280.71 1114.52 2285.22C1109.33 2291.28 1106.49 2296.68 1097.74 2316.3C1083.17 2348.97 1073.23 2364.05 1052.81 2384.54C1030.03 2407.39 999.781 2427.67 940.145 2460.15C909.839 2476.67 900.152 2481.32 848.142 2504.35C798.193 2526.49 789.617 2530.7 788.647 2533.21C787.907 2535.83 787.907 2538.32 789.59 2539.67C792.619 2542.56 823.215 2538.79 873.649 2529.27C914.254 2521.62 929.462 2516.78 954.934 2503.4C997.391 2481.12 1025.28 2461.54 1051.04 2435.94C1069.57 2417.54 1078.64 2405.41 1088.83 2385.32C1094.01 2375.03 1102.17 2354.69 1105.76 2343L1107.44 2337.55L1116.22 2345.73C1148.66 2375.95 1187.55 2390.2 1208.58 2379.54C1216.96 2375.29 1220.04 2371.32 1227.27 2354.85C1245.13 2314.5 1243.62 2273.02 1223.84 2256.75C1221.95 2255.2 1217.38 2252.51 1213.63 2250.82C1207.7 2248.2 1205.39 2247.73 1196.29 2247.46L1196.03 2247.4ZM1171.92 2295.88L1171.9 2295.91C1179.32 2295.91 1181.61 2295.91 1186.43 2298.34C1196.74 2302.98 1204.43 2312.74 1208.2 2326C1209.07 2329.03 1209.81 2332.06 1209.81 2332.81C1209.81 2334.43 1209.81 2334.43 1200.5 2331.67C1186.41 2327.56 1179.21 2323.76 1157.85 2308.99C1149.1 2303.06 1148.33 2302.12 1149.89 2300.96C1153.32 2298.4 1163.3 2296.12 1171.96 2295.91L1171.92 2295.88Z" fill="url(#paint6_linear_1_3)"/>
<path d="M92.7422 1781.98C31.0999 1887.98 7.38401 2003.55 36.4785 2120.92C71.0122 2255.31 173.186 2303.06 311.348 2290.31C500.705 2254.96 651.394 2170.29 777.015 2017.78C777.015 2012.6 772.639 1926.17 771.966 1912.29C768.802 1916.12 765.706 1919.98 762.845 1924.05C759.546 1928.69 756.18 1933.24 752.693 1937.73C749.395 1942.17 745.807 1946.32 742.353 1950.62C738.718 1955.13 735.177 1959.66 731.475 1964.05C727.84 1968.5 724.198 1973 720.347 1977.31C716.308 1981.62 712.262 1985.86 708.008 1989.93C702.959 1994.78 698.025 1999.61 692.895 2004.3C686.904 2009.42 680.852 2014.63 674.989 2019.9C668.728 2025.29 662.609 2030.83 656.355 2036.22C622.239 2067.53 587.86 2095.37 552.499 2119.23C517.144 2143.08 480.819 2162.98 442.751 2178.41C430.062 2183.6 417.178 2188.19 404.084 2192.34C390.991 2196.45 377.662 2200.13 364.105 2203.22C98.6864 2250.72 -41.6229 2079.52 92.7759 1781.98H92.7422Z" fill="url(#paint7_linear_1_3)"/>
<path d="M1402.24 1939.16C1402.24 1941.38 1401.23 1943.4 1400.63 1945.49C1399.89 1948.38 1399.55 1951.48 1398.95 1954.45C1398.2 1957.48 1398 1960.58 1398.14 1963.74C1394.77 2005.57 1393.49 2048.08 1395.71 2090.74C1392.89 2145.27 1414.08 2148.76 1462.06 2170.77L1618.84 2242.72C1623.21 2214.55 1627.34 2186.38 1626.59 2159.06C1589.53 2135.46 1535.27 2098.04 1491.91 2076.22C1416.6 2029.4 1403.83 1968.32 1402.2 1939.14L1402.24 1939.16Z" fill="url(#paint8_linear_1_3)"/>
<path d="M1109.05 1599.12C1108.38 1685.21 1130.04 1746.19 1192.67 1790.81C1237.36 1823.12 1298.72 1825.66 1346.44 1807.35C1427.54 1770.73 1442.32 1715.28 1430.25 1633.07C1428.56 1636.17 1426.95 1639.27 1424.93 1642.29C1421.5 1647.95 1417.18 1653.04 1412.74 1657.98C1408.43 1662.75 1404.06 1667.41 1399.54 1671.93C1395.37 1676.1 1390.65 1679.45 1385.99 1682.94C1381.75 1686.37 1377.31 1689.47 1372.77 1692.46C1368.39 1695.48 1363.85 1698.38 1359.36 1701.27C1354.85 1704.16 1349.94 1706.11 1345.01 1708.08C1339.96 1710.23 1335.01 1712.86 1329.9 1715.01C1325.05 1717.16 1319.76 1718.64 1314.58 1720.06C1309.19 1721.47 1303.93 1722.55 1298.56 1723.49C1292.97 1724.63 1287.39 1724.5 1281.75 1724.63C1275.89 1724.63 1270.12 1724.63 1264.36 1723.96C1258.97 1723.29 1253.54 1722.68 1248.24 1721.54C1242.92 1720.12 1237.57 1718.84 1232.16 1717.7C1226.44 1716.49 1220.92 1714.67 1215.38 1712.85C1210.06 1710.9 1204.63 1708.75 1199.39 1706.26C1194 1703.7 1188.75 1700.8 1183.67 1697.56C1178.62 1694.46 1173.58 1691.16 1168.8 1687.55C1164.16 1684.53 1160.29 1680.46 1156.19 1676.76C1152.21 1673.13 1148.79 1668.93 1145.12 1664.96C1141.35 1660.99 1138.32 1656.47 1135.24 1651.99C1131.88 1647.55 1128.65 1643.04 1125.85 1638.22C1123.29 1633.3 1121 1628.34 1118.43 1623.56C1115.67 1618.58 1113.51 1613.31 1111.55 1607.97C1110.48 1605 1109.87 1602.04 1109 1599.03L1109.05 1599.12ZM1292.38 1695.98C1292.38 1696.65 1292.38 1696.65 1292.38 1696.92V1695.98Z" fill="url(#paint9_linear_1_3)"/>
<path d="M896.281 561.378C894.531 569.753 892.309 578.214 889.435 586.824C885.934 595.165 882.461 603.458 879.492 612.028C876.53 620.624 873.366 629.113 868.701 636.955C863.652 645.646 858.253 654.141 853.474 663.007C848.088 672.337 842.118 681.479 835.844 690.311C829.004 700.584 821.485 710.405 813.01 719.405C804.514 729.328 795.864 739.109 787.597 749.227C780.219 757.258 772.532 764.959 764.79 772.633C756.995 779.937 748.991 787.052 740.596 793.67C732.269 800.442 723.787 807.026 716.154 814.592C708.19 822.01 699.701 828.715 691.313 835.595C613.05 905.174 524.347 961.007 440.476 1021.9C324.96 1108.93 206.717 1245.29 143.123 1392.49C119.245 1449.47 103.513 1510.62 95.4485 1572.25C190.837 1315.94 328.514 1201.32 503.074 1062.7C670.869 944.339 823.531 869.738 898.099 655.865L896.281 561.378Z" fill="url(#paint10_linear_1_3)"/>
<path d="M365.956 1612.21C368.245 1607.7 370.668 1603.03 372.486 1598.21C374.371 1592.96 376.929 1587.74 380.039 1582.95C383.068 1577.57 386.568 1572.55 390.587 1567.89C395.434 1563.11 401.055 1559.71 406.918 1556.67C413.583 1553.37 420.503 1550.75 427.47 1548.38C434.599 1545.83 441.816 1544.21 449.099 1542.86C456.242 1541.38 463.465 1540.57 470.641 1540.17C477.238 1539.5 483.391 1541.45 489.624 1542.73C496.726 1544.28 503.573 1546.83 510.217 1549.53C517.191 1552.56 523.875 1556.13 530.055 1560.4C535.979 1564.24 541.842 1568.11 547.127 1572.75C551.974 1577.26 556.706 1581.92 561.162 1586.83C566.077 1590.87 569.388 1596.27 572.721 1601.62C577.029 1607.14 580.981 1612.93 584.279 1619.23C587.51 1625.56 589.732 1632.34 591.617 1639.19C593.703 1646.52 595.184 1654.02 596.665 1661.54L592.088 1587.56C575.151 1410.58 362.792 1405 366.01 1612.16L365.956 1612.21Z" fill="url(#paint11_linear_1_3)"/>
<path d="M596.948 1662.69C598.564 1708.44 579.257 1742.87 550.405 1769.51C438.463 1862.98 295.805 1877.11 192.554 1810.04C145.849 1764.92 125.378 1716.62 122.571 1667.76C114.344 1781.27 155.502 1868.43 234.398 1915.5C293.078 1950.14 362.321 1952.74 424.582 1938.68C571.502 1908.63 612.424 1767.25 597.076 1662.65L596.948 1662.69Z" fill="url(#paint12_linear_1_3)"/>
<path d="M1044.68 1321.23L959.835 1408.72L1047.54 1493.8L1132.36 1406.38L1044.68 1321.23Z" fill="url(#paint13_linear_1_3)"/>
<path d="M1109.91 1932.96L1025.06 2020.45L1112.76 2105.52L1197.58 2018.11L1109.91 1932.96Z" fill="url(#paint14_linear_1_3)"/>
<path d="M1271.83 1932.96L1186.98 2020.45L1274.68 2105.52L1359.5 2018.11L1271.83 1932.96Z" fill="url(#paint15_linear_1_3)"/>
<path d="M1065.81 1526.42C1049.06 1525.07 1030.23 1537.05 1015.38 1556C962.912 1622.93 926.547 1700.94 881.283 1772.07C880.071 1773.62 879.263 1775.3 878.119 1776.78L880.811 1844.71L1038.41 1597.87C1055.26 1571.82 1090.08 1555.12 1101.65 1567.83C1094.42 1539.96 1080.99 1527.6 1065.8 1526.38L1065.81 1526.42Z" fill="#8F2D3B"/>
<defs>
<linearGradient id="paint0_linear_1_3" x1="935.042" y1="1948.42" x2="858.583" y2="976.853" gradientUnits="userSpaceOnUse">
<stop stop-color="#6D222D"/>
<stop offset="1" stop-color="#8E2C3B"/>
</linearGradient>
<linearGradient id="paint1_linear_1_3" x1="471.269" y1="2737.67" x2="1155.04" y2="2570.9" gradientUnits="userSpaceOnUse">
<stop stop-color="#8A2B39"/>
<stop offset="1" stop-color="#6D222D"/>
</linearGradient>
<linearGradient id="paint2_linear_1_3" x1="526.777" y1="355.118" x2="691.529" y2="780.301" gradientUnits="userSpaceOnUse">
<stop stop-color="#6F222D"/>
<stop offset="1" stop-color="#8F2D3C"/>
</linearGradient>
<linearGradient id="paint3_linear_1_3" x1="1080.08" y1="1188.74" x2="1080.08" y2="884.285" gradientUnits="userSpaceOnUse">
<stop stop-color="#6D222D"/>
<stop offset="1" stop-color="#8A2B3A"/>
</linearGradient>
<linearGradient id="paint4_linear_1_3" x1="1248.75" y1="1242.88" x2="1248.75" y2="1104.54" gradientUnits="userSpaceOnUse">
<stop stop-color="#6D222D"/>
<stop offset="1" stop-color="#902D3C"/>
</linearGradient>
<linearGradient id="paint5_linear_1_3" x1="386.494" y1="1735.66" x2="386.625" y2="1692.43" gradientUnits="userSpaceOnUse">
<stop stop-color="#6D222D"/>
<stop offset="1" stop-color="#902D3C"/>
</linearGradient>
<linearGradient id="paint6_linear_1_3" x1="806.432" y1="2714.62" x2="770.245" y2="46.4805" gradientUnits="userSpaceOnUse">
<stop stop-color="#6F222D"/>
<stop offset="0.545" stop-color="#8F2D3C"/>
</linearGradient>
<linearGradient id="paint7_linear_1_3" x1="165" y1="2261.61" x2="939.385" y2="1703.42" gradientUnits="userSpaceOnUse">
<stop stop-color="#902D3C"/>
<stop offset="1" stop-color="#6D222D"/>
</linearGradient>
<linearGradient id="paint8_linear_1_3" x1="1578.14" y1="2190.85" x2="1409.12" y2="2057.2" gradientUnits="userSpaceOnUse">
<stop stop-color="#8A2B39"/>
<stop offset="1" stop-color="#6D222D"/>
</linearGradient>
<linearGradient id="paint9_linear_1_3" x1="943.938" y1="1728.02" x2="1430.74" y2="1723.08" gradientUnits="userSpaceOnUse">
<stop stop-color="#99303F"/>
<stop offset="1" stop-color="#6D222D"/>
</linearGradient>
<linearGradient id="paint10_linear_1_3" x1="138.269" y1="1403.94" x2="881.136" y2="715.95" gradientUnits="userSpaceOnUse">
<stop stop-color="#902D3C"/>
<stop offset="1" stop-color="#6F222D"/>
</linearGradient>
<linearGradient id="paint11_linear_1_3" x1="392.344" y1="1511.9" x2="561.428" y2="1541.21" gradientUnits="userSpaceOnUse">
<stop stop-color="#902D3C"/>
<stop offset="1" stop-color="#6F222D"/>
</linearGradient>
<linearGradient id="paint12_linear_1_3" x1="161.45" y1="1863.01" x2="517.23" y2="1807.43" gradientUnits="userSpaceOnUse">
<stop stop-color="#902D3C"/>
<stop offset="1" stop-color="#6F222D"/>
</linearGradient>
<linearGradient id="paint13_linear_1_3" x1="1063.75" y1="1443.25" x2="1063.88" y2="1398.26" gradientUnits="userSpaceOnUse">
<stop stop-color="#6D222D"/>
<stop offset="1" stop-color="#902D3C"/>
</linearGradient>
<linearGradient id="paint14_linear_1_3" x1="1128.97" y1="2054.97" x2="1129.1" y2="2009.99" gradientUnits="userSpaceOnUse">
<stop stop-color="#6D222D"/>
<stop offset="1" stop-color="#902D3C"/>
</linearGradient>
<linearGradient id="paint15_linear_1_3" x1="1290.89" y1="2054.97" x2="1291.03" y2="2009.99" gradientUnits="userSpaceOnUse">
<stop stop-color="#6D222D"/>
<stop offset="1" stop-color="#902D3C"/>
</linearGradient>
</defs>
</svg>
